<svg width="19" height="18" viewBox="0 0 19 18" fill="none" xmlns="http://www.w3.org/2000/svg">
<g clip-path="url(#clip0_314_252)">
<path d="M16.13 3.4575C15.7469 3.07426 15.2921 2.77024 14.7915 2.56282C14.2909 2.35539 13.7543 2.24863 13.2125 2.24863C12.6706 2.24863 12.134 2.35539 11.6335 2.56282C11.1329 2.77024 10.678 3.07426 10.295 3.4575L9.49997 4.2525L8.70497 3.4575C7.9312 2.68373 6.88175 2.24904 5.78747 2.24904C4.6932 2.24904 3.64374 2.68373 2.86997 3.4575C2.0962 4.23127 1.6615 5.28073 1.6615 6.375C1.6615 7.46928 2.0962 8.51873 2.86997 9.2925L3.66497 10.0875L9.49997 15.9225L15.335 10.0875L16.13 9.2925C16.5132 8.90944 16.8172 8.45461 17.0247 7.95402C17.2321 7.45343 17.3388 6.91687 17.3388 6.375C17.3388 5.83314 17.2321 5.29658 17.0247 4.79599C16.8172 4.29539 16.5132 3.84057 16.13 3.4575V3.4575Z" stroke="white" stroke-width="2" stroke-linecap="round" stroke-linejoin="round"/>
</g>
<defs>
<clipPath id="clip0_314_252">
<rect width="18" height="18" fill="white" transform="translate(0.5)"/>
</clipPath>
</defs>
</svg>
